<svg xmlns="http://www.w3.org/2000/svg" version="1.0" width="512.000000pt" height="512.000000pt" viewBox="0 0 512.000000 512.000000" preserveAspectRatio="xMidYMid meet">

<g transform="translate(0.000000,512.000000) scale(0.100000,-0.100000)" fill="#000000" stroke="none">
<path d="M4928 5095 c-552 -152 -998 -551 -1206 -1080 -22 -55 -48 -133 -58 -172 l-18 -73 -148 -147 -147 -147 14 49 c46 152 60 265 59 485 0 193 -3 228 -27 340 -46 220 -154 490 -247 619 -55 75 -118 65 -174 -28 -336 -557 -349 -1236 -37 -1810 58 -105 90 -141 128 -141 15 0 64 21 108 46 178 103 365 169 573 205 109 18 152 20 302 16 244 -8 440 -53 635 -145 l80 -39 -40 -20 c-128 -65 -337 -129 -500 -153 -181 -27 -457 -10 -645 41 -92 24 -124 17 -145 -35 -17 -40 -6 -84 24 -103 48 -30 245 -69 424 -83 332 -27 697 55 997 225 114 64 134 84 134 132 0 49 -35 77 -205 162 -147 73 -303 128 -469 163 -91 19 -135 22 -335 22 -232 0 -297 -7 -505 -60 -17 -5 24 43 136 157 l162 164 30 110 c121 439 430 814 841 1019 94 47 231 100 239 92 7 -8 -34 -119 -84 -223 -67 -140 -174 -292 -295 -418 -97 -102 -109 -118 -109 -150 0 -46 36 -85 79 -85 36 0 104 55 193 155 136 154 237 310 315 487 46 105 113 321 113 365 0 32 -51 83 -82 82 -13 0 -62 -11 -110 -24z m-1749 -584 c93 -284 105 -599 34 -891 -24 -102 -84 -269 -122 -340 l-19 -34 -25 49 c-154 306 -202 701 -126 1051 25 116 79 274 121 358 l31 61 38 -79 c20 -43 51 -122 68 -175z"/>
<path d="M1893 4395 c-48 -34 -197 -326 -261 -515 -86 -251 -122 -472 -122 -745 0 -235 41 -528 86 -616 24 -47 96 -55 134 -14 26 27 25 49 -5 185 -43 196 -58 483 -35 685 26 224 98 472 197 675 l55 115 58 -119 c268 -547 276 -1205 23 -1773 -102 -228 -101 -227 -560 -686 l-419 -417 47 142 c95 287 133 530 133 848 0 310 -32 525 -121 820 -46 153 -80 222 -115 234 -37 13 -75 -1 -101 -36 l-21 -28 51 -152 c99 -295 136 -523 137 -828 0 -311 -35 -532 -130 -820 -52 -154 -178 -439 -202 -454 -13 -8 -125 215 -176 350 -279 736 -206 1556 200 2240 35 58 54 102 54 122 0 56 -65 97 -116 73 -31 -14 -79 -90 -170 -266 -87 -170 -151 -329 -199 -494 -199 -693 -112 -1464 234 -2082 l59 -104 -304 -306 c-269 -270 -304 -309 -304 -337 0 -40 35 -80 78 -88 32 -7 40 0 370 327 l337 334 120 67 c282 156 586 258 910 305 166 24 524 24 690 0 203 -30 420 -87 605 -159 99 -39 320 -148 320 -158 0 -14 -262 -137 -390 -183 -538 -193 -1114 -206 -1653 -38 -96 31 -133 38 -151 31 -55 -21 -75 -100 -33 -137 23 -22 159 -69 292 -102 631 -156 1287 -86 1870 199 280 137 339 187 313 260 -24 71 -429 273 -730 364 -541 163 -1158 151 -1683 -34 -48 -17 -89 -30 -91 -28 -2 2 172 179 386 393 l390 390 117 -62 c315 -164 630 -247 983 -260 458 -15 864 87 1248 314 98 58 112 74 112 121 0 41 -30 68 -157 139 -476 268 -1031 356 -1571 247 -68 -13 -163 -37 -212 -53 -50 -16 -90 -26 -90 -22 0 3 108 114 240 246 216 216 240 243 240 273 0 46 -38 82 -87 82 -35 0 -49 -12 -279 -241 l-242 -241 29 98 c168 562 116 1159 -144 1679 -66 132 -120 223 -145 243 -22 16 -73 15 -99 -3z m1452 -2195 c246 -27 473 -91 688 -193 l128 -60 -30 -20 c-61 -38 -287 -129 -405 -163 -224 -65 -321 -78 -591 -78 -269 0 -367 13 -590 78 -124 35 -331 118 -398 159 l-39 24 104 50 c214 104 460 175 698 202 107 12 330 13 435 1z"/>
</g>
</svg>